<svg xmlns="http://www.w3.org/2000/svg" width="1024" height="1024" viewBox="0 0 1024 1024" fill="none">
  <defs>
    <linearGradient id="background" x1="146" y1="92" x2="878" y2="942" gradientUnits="userSpaceOnUse">
      <stop stop-color="#172B40" />
      <stop offset="1" stop-color="#060D19" />
    </linearGradient>
    <radialGradient id="glow" cx="0" cy="0" r="1" gradientUnits="userSpaceOnUse" gradientTransform="translate(512 512) rotate(90) scale(370)">
      <stop stop-color="#2DD4BF" stop-opacity="0.18" />
      <stop offset="1" stop-color="#2DD4BF" stop-opacity="0" />
    </radialGradient>
    <clipPath id="squircle">
      <rect x="32" y="32" width="960" height="960" rx="224" />
    </clipPath>
  </defs>
  <g clip-path="url(#squircle)">
    <rect x="32" y="32" width="960" height="960" fill="url(#background)" />
    <circle cx="512" cy="512" r="370" fill="url(#glow)" />
    <path d="M92 232H222L276 286M932 792H802L748 738M92 792H196L242 746M932 232H828L782 278" stroke="#4F7CFF" stroke-opacity="0.17" stroke-width="5" stroke-linecap="round" stroke-linejoin="round" />
    <circle cx="92" cy="232" r="9" fill="#4F7CFF" fill-opacity="0.65" />
    <circle cx="932" cy="792" r="9" fill="#F5B84B" fill-opacity="0.65" />
    <path d="M128 390H214M810 634H896M180 874H286M738 150H844" stroke="#2DD4BF" stroke-opacity="0.12" stroke-width="3" stroke-linecap="round" />
  </g>
  <path d="M742 322L674 254H398L302 350V674L398 770H674L742 702" stroke="#2DD4BF" stroke-width="58" stroke-linecap="round" stroke-linejoin="round" />
  <circle cx="742" cy="322" r="35" fill="#4F7CFF" />
  <circle cx="742" cy="702" r="35" fill="#F5B84B" />
  <circle cx="302" cy="512" r="18" fill="#4F7CFF" />
  <path d="M422 370V654" stroke="#F8FAFC" stroke-width="72" stroke-linecap="round" />
  <path d="M602 370V654" stroke="#F8FAFC" stroke-width="72" stroke-linecap="round" />
  <path d="M422 512H474L512 474L550 512H602" stroke="#4F7CFF" stroke-width="58" stroke-linecap="round" stroke-linejoin="round" />
</svg>
